<svg xmlns="http://www.w3.org/2000/svg" viewBox="-50 -50 100 100">
  <rect x="-50" y="-50" width="100" height="100" fill="#F6F2E9"/>
  <g fill="#16233F">
    <path transform="rotate(0)" d="M0,0 C-7,-16 -18,-24 -26,-40 Q0,-20 26,-40 C18,-24 7,-16 0,0 Z"/>
    <path transform="rotate(90)" d="M0,0 C-7,-16 -18,-24 -26,-40 Q0,-20 26,-40 C18,-24 7,-16 0,0 Z"/>
    <path transform="rotate(180)" d="M0,0 C-7,-16 -18,-24 -26,-40 Q0,-20 26,-40 C18,-24 7,-16 0,0 Z"/>
    <path transform="rotate(270)" d="M0,0 C-7,-16 -18,-24 -26,-40 Q0,-20 26,-40 C18,-24 7,-16 0,0 Z"/>
  </g>
</svg>
